<svg width="22" height="22" viewBox="0 0 22 22" fill="none" xmlns="http://www.w3.org/2000/svg">
<path d="M19.4793 11C19.4793 13.2488 18.586 15.4055 16.9958 16.9957C15.4057 18.5858 13.249 19.4792 11.0002 19.4792V20.8542C16.4424 20.8542 20.8543 16.4422 20.8543 11H19.4793ZM11.0002 19.4792C8.75135 19.4792 6.59464 18.5858 5.00449 16.9957C3.41433 15.4055 2.521 13.2488 2.521 11H1.146C1.146 16.4422 5.55791 20.8542 11.0002 20.8542V19.4792ZM2.521 11C2.521 8.75118 3.41433 6.59447 5.00449 5.00432C6.59464 3.41417 8.75135 2.52083 11.0002 2.52083V1.14583C5.55791 1.14583 1.146 5.55775 1.146 11H2.521ZM14.2085 13.0625C12.8106 13.0625 11.4699 12.5072 10.4815 11.5187C9.49298 10.5302 8.93766 9.18957 8.93766 7.79166H7.56266C7.56266 9.55425 8.26285 11.2446 9.50918 12.491C10.7555 13.7373 12.4459 14.4375 14.2085 14.4375V13.0625ZM18.7231 10.5132C18.254 11.2912 17.5919 11.9347 16.8009 12.3813C16.0099 12.828 15.1169 13.0626 14.2085 13.0625V14.4375C15.3538 14.4378 16.4797 14.1422 17.4771 13.5793C18.4744 13.0163 19.3094 12.2052 19.901 11.2246L18.7231 10.5132ZM8.93766 7.79166C8.93753 6.88327 9.17218 5.99026 9.61883 5.19926C10.0655 4.40826 10.709 3.74613 11.4869 3.27708L10.7756 2.10008C9.79507 2.69159 8.98403 3.52642 8.42111 4.52362C7.85819 5.52081 7.56248 6.64655 7.56266 7.79166H8.93766ZM11.0002 2.52083C10.9541 2.51994 10.9087 2.50993 10.8665 2.49136C10.8243 2.47279 10.7863 2.44604 10.7545 2.41266C10.7158 2.37384 10.6897 2.32437 10.6793 2.27058C10.6757 2.24216 10.6775 2.15966 10.7756 2.10008L11.4869 3.27708C11.948 2.99841 12.0965 2.48783 12.0424 2.08633C11.9856 1.66924 11.6574 1.14583 11.0002 1.14583V2.52083ZM19.901 11.2246C19.8405 11.3227 19.758 11.3245 19.7296 11.3208C19.6758 11.3105 19.6263 11.2843 19.5875 11.2457C19.5541 11.2139 19.5274 11.1758 19.5088 11.1337C19.4902 11.0915 19.4802 11.0461 19.4793 11H20.8543C20.8543 10.3427 20.3309 10.0146 19.9138 9.95775C19.5123 9.90366 19.0017 10.0522 18.7231 10.5132L19.901 11.2246Z" fill="white"/>
</svg>
