<svg width="24" height="24" viewBox="0 0 24 24" fill="none" xmlns="http://www.w3.org/2000/svg">
<path d="M12.0738 15.558C11.335 15.756 10.553 15.7197 9.83567 15.4544C9.11831 15.189 8.50098 14.7076 8.06885 14.0765" stroke="white" stroke-width="0.5" stroke-linecap="round" stroke-linejoin="round"/>
<path d="M11.1176 13.986C12.2208 13.986 13.1151 13.0917 13.1151 11.9885C13.1151 10.8853 12.2208 9.991 11.1176 9.991C10.0144 9.991 9.12012 10.8853 9.12012 11.9885C9.12012 13.0917 10.0144 13.986 11.1176 13.986Z" stroke="white" stroke-width="0.5" stroke-linecap="round" stroke-linejoin="round"/>
<path d="M14.458 3.75201C15.574 4.20473 16.5863 4.87946 17.4336 5.73526C18.2809 6.59106 18.9455 7.61009 19.387 8.73051M2.25 11.385C2.33941 10.0702 2.72011 8.79163 3.36452 7.64203C4.00893 6.49243 4.90093 5.50052 5.97593 4.73814C7.05093 3.97575 8.28201 3.46197 9.58004 3.234C10.8781 3.00602 12.2106 3.06956 13.481 3.42001M13.4845 20.5555C12.243 20.8985 10.9418 20.9676 9.67095 20.758C8.40012 20.5483 7.19003 20.065 6.12447 19.3414C5.05892 18.6178 4.16336 17.6713 3.4998 16.5674C2.83625 15.4635 2.42055 14.2285 2.2815 12.948" stroke="white" stroke-width="0.5" stroke-linecap="round" stroke-linejoin="round"/>
<path d="M5.92283 7.08999C6.85453 6.10209 8.04862 5.40034 9.36504 5.06706C10.6815 4.73378 12.0656 4.78279 13.3552 5.20833C14.6447 5.63388 15.7862 6.41832 16.6457 7.46964C17.5052 8.52097 18.0471 9.79559 18.2078 11.144M6.19083 17.157C4.99247 16.0148 4.22828 14.4916 4.02899 12.8482C3.8297 11.2047 4.2077 9.54302 5.09833 8.14749M12.4428 19.005C10.9322 19.2905 9.36972 19.0808 7.98783 18.407" stroke="white" stroke-width="0.5" stroke-linecap="round" stroke-linejoin="round"/>
<path d="M17.5057 20.9C19.8499 20.9 21.7502 18.9997 21.7502 16.6555C21.7502 14.3113 19.8499 12.411 17.5057 12.411C15.1616 12.411 13.2612 14.3113 13.2612 16.6555C13.2612 18.9997 15.1616 20.9 17.5057 20.9Z" stroke="white" stroke-width="0.5" stroke-linecap="round" stroke-linejoin="round"/>
<path d="M17.5053 16.4595C17.9762 16.4595 18.3578 16.0778 18.3578 15.607C18.3578 15.1362 17.9762 14.7545 17.5053 14.7545C17.0345 14.7545 16.6528 15.1362 16.6528 15.607C16.6528 16.0778 17.0345 16.4595 17.5053 16.4595Z" stroke="white" stroke-width="0.5" stroke-linecap="round" stroke-linejoin="round"/>
<path d="M17.5141 17.156C19.0891 17.139 19.2851 18.173 19.2851 18.173C18.0726 18.5455 16.9511 18.547 15.7266 18.173C15.7266 18.173 15.9396 17.173 17.5141 17.156Z" stroke="white" stroke-width="0.5" stroke-linecap="round" stroke-linejoin="round"/>
</svg>
