<svg width="24" height="24" viewBox="0 0 24 24" fill="none" xmlns="http://www.w3.org/2000/svg">
<path d="M12 2C11.623 2.333 11.095 3.2 12 4M12 20C12.377 20.333 12.906 21.2 12 22M19.5 4.503C18.968 4.47 17.925 4.723 18.004 5.998M5.496 17.5C5.529 18.032 5.276 19.075 4 18.996M5.003 4.5C4.97 5.032 5.223 6.076 6.5 5.997M18 17.503C18.532 17.471 19.575 17.711 19.496 18.917M22 12C21.667 11.623 20.8 11.095 20 12M4 11.5C3.667 11.877 2.8 12.406 2 11.5M17 12C17 13.3261 16.4732 14.5979 15.5355 15.5355C14.5979 16.4732 13.3261 17 12 17C10.6739 17 9.40215 16.4732 8.46447 15.5355C7.52678 14.5979 7 13.3261 7 12C7 10.6739 7.52678 9.40215 8.46447 8.46447C9.40215 7.52678 10.6739 7 12 7C13.3261 7 14.5979 7.52678 15.5355 8.46447C16.4732 9.40215 17 10.6739 17 12Z" stroke="white" stroke-width="1.5" stroke-linecap="round" stroke-linejoin="round"/>
</svg>
